<?xml version="1.0" encoding="UTF-8"?>
<svg width="18px" height="18px" viewBox="0 0 18 18" version="1.1" xmlns="http://www.w3.org/2000/svg" xmlns:xlink="http://www.w3.org/1999/xlink">
  <g stroke="none" stroke-width="1" fill="none" fill-rule="evenodd">
    <path d="M8.99934213,2.13201175 C7.10495154,2.13201175 5.54554625,3.67168107 5.54554625,5.58580764 C5.54554625,7.48019824 7.08547871,9.0201307 8.99934213,9.0201307 C10.8937327,9.0201307 12.453138,7.48019824 12.453138,5.58580764 C12.453138,3.67062848 10.8937327,2.13201175 8.99934213,2.13201175 L8.99934213,2.13201175 Z M8.99934213,8.2696373 C7.5191439,8.2696373 6.31551248,7.06600588 6.31551248,5.58580764 C6.31551248,4.1056094 7.5191439,2.88118942 8.99934213,2.88118942 C10.4795404,2.88118942 11.6831718,4.08508399 11.6831718,5.56528222 C11.6831718,7.04548046 10.4795404,8.2696373 8.99934213,8.2696373 L8.99934213,8.2696373 Z M8.99934213,0 C4.04587518,0 0,4.04587518 0,8.99934213 C0,13.9541248 4.04587518,18 8.99934213,18 C13.9528091,18 17.9986843,13.9541248 17.9986843,9.00039472 C17.9986843,4.04692777 13.9528091,0 8.99934213,0 L8.99934213,0 Z M8.99934213,17.2495066 C6.47261085,17.2495066 4.20297355,16.1042937 2.68382966,14.2891101 C3.86798825,12.0194728 6.41419236,10.3613877 8.99934213,10.3613877 C11.6247533,10.3613877 14.0917504,12 15.275909,14.3477918 C13.7554493,16.1250822 11.5052849,17.2495066 8.99934213,17.2495066 L8.99934213,17.2495066 Z M8.99934213,9.61220999 C6.25577826,9.61220999 3.69010131,11.1118811 2.30858296,13.5201965 L2.2293759,13.6786106 C1.3023113,12.3544581 0.749177668,10.7366344 0.749177668,8.99934213 C0.749177668,4.46006754 4.46006754,0.750493399 8.99934213,0.750493399 C13.5386167,0.750493399 17.2495066,4.44059471 17.2495066,9.00039472 C17.2495066,10.7376869 16.696373,12.3555107 15.7693084,13.6980834 C14.4267357,11.2105609 11.8415859,9.61220999 8.99934213,9.61220999 L8.99934213,9.61220999 Z" fill="#717171"></path>
  </g>
</svg>
