<?xml version="1.0" encoding="UTF-8"?>
<svg width="22px" height="14px" viewBox="0 0 22 14" version="1.1" xmlns="http://www.w3.org/2000/svg" xmlns:xlink="http://www.w3.org/1999/xlink">
  <g stroke="none" stroke-width="1" fill="none" fill-rule="evenodd">
    <g fill="#717171">
      <path d="M10.7103825,0 C4.80432058,0 0,4.96533333 0,11.0693333 C0,11.368 0.239912568,11.6077949 0.535519126,11.6077949 C0.831125683,11.6077949 1.07103825,11.368 1.07103825,11.0693333 C1.07103825,5.55979487 5.3955337,1.07692308 10.7103825,1.07692308 C16.0252313,1.07692308 20.3497268,5.55979487 20.3497268,11.0693333 C20.3497268,11.368 20.5896393,11.6077949 20.8852459,11.6077949 C21.1808525,11.6077949 21.420765,11.368 21.420765,11.0693333 C21.420765,4.96533333 16.6164444,0 10.7103825,0"></path>
      <path d="M11.813878,12.1420513 C11.5097031,12.4461026 11.1066357,12.6144615 10.6771494,12.6144615 C10.247663,12.6144615 9.84459563,12.4461026 9.54042077,12.1420513 C8.9142204,11.5109744 8.9142204,10.4871795 9.54042077,9.85610256 C10.1041439,9.29107692 12.5011275,8.13553846 14.2808361,7.37558974 C13.5250401,9.16507692 12.3772441,11.5741538 11.813878,12.1420513 M15.063051,6 C14.8691931,6 14.6307086,6.056 14.3547377,6.17805128 C14.3547377,6.17805128 9.82924408,8.04328205 8.78319672,9.09471795 C7.73893443,10.1465128 7.73893443,11.851641 8.78319672,12.9034359 C9.3062204,13.4278974 9.99239891,13.6913846 10.6771494,13.6913846 C11.3618998,13.6913846 12.0480783,13.4278974 12.571102,12.9034359 C13.6167923,11.851641 15.4718306,7.30128205 15.4718306,7.30128205 C15.820275,6.48964103 15.6307013,6 15.063051,6"></path>
    </g>
  </g>
</svg>
