<?xml version="1.0" encoding="UTF-8"?>
<svg width="17px" height="18px" viewBox="0 0 17 18" version="1.1" xmlns="http://www.w3.org/2000/svg" xmlns:xlink="http://www.w3.org/1999/xlink">
  <g stroke="none" stroke-width="1" fill="none" fill-rule="evenodd">
    <g fill-rule="nonzero" fill="#717171">
      <path d="M14.3860909,4.29545455 L10.7386364,4.29545455 L10.7386364,4.977 L14.3860909,4.977 C14.9997273,4.977 15.5110909,5.48836364 15.5110909,6.06763636 L15.5110909,16.1247273 C15.5110909,16.7383636 14.9997273,17.2153636 14.3860909,17.2153636 L1.97754545,17.2161628 C1.36390909,17.2161628 0.852545455,16.7047992 0.852545455,16.1255264 L0.852545455,6.06843552 C0.852545455,5.45479916 1.36390909,4.97779916 1.97754545,4.97779916 L5.625,4.97779916 L5.625,4.2962537 L1.97754545,4.29545475 C0.989181818,4.29545475 0.171,5.07927293 0.171,6.06845475 L0.171,16.1255457 C0.171,17.1139093 0.989181818,17.8985457 1.97754545,17.8985457 L14.3869091,17.8985457 C15.3752727,17.8985457 16.1934545,17.1147275 16.1934545,16.1255457 L16.1934545,6.06845475 C16.1934545,5.07929339 15.3752727,4.29545475 14.3861114,4.29545475 L14.3860909,4.29545455 Z"></path>
      <path d="M5.38609091,9.13663636 L7.94290909,11.5232727 C8.01082432,11.591188 8.07953932,11.6255455 8.18181818,11.6255455 C8.28409705,11.6255455 8.35200614,11.591188 8.42072727,11.5232727 L10.9775455,9.13663636 L10.5005455,8.62527273 L8.523,10.4661818 L8.523,0 L7.84145455,0 L7.84145455,10.4661818 L5.86390909,8.62527273 L5.38609091,9.13663636 Z"></path>
    </g>
  </g>
</svg>
