<?xml version="1.0" encoding="UTF-8"?>
<svg width="16px" height="18px" viewBox="0 0 16 18" version="1.1" xmlns="http://www.w3.org/2000/svg" xmlns:xlink="http://www.w3.org/1999/xlink">
  <g stroke="none" stroke-width="1" fill="none" fill-rule="evenodd">
    <path d="M7.84387752,0 L7.77158372,0 C6.83523439,0 6.07267937,0.762555024 6.07267937,1.69890435 L6.07267937,2.00947852 C3.81017254,2.74369437 2.16881406,4.8708672 2.16881406,7.37512451 L2.16881406,12.1543232 C2.16881406,12.3894226 1.97795842,12.5791215 1.74401568,12.5791215 L1.72146001,12.5791215 C0.772676156,12.5791215 0,13.3517977 0,14.3005816 L0,14.3266073 C0,15.2765479 0.772676156,16.0480673 1.72146001,16.0480673 L5.78697426,16.0480673 C5.87604023,17.1041352 6.76178389,18 7.84040742,18 L7.87337339,18 C8.95199692,18 9.83774058,17.1041352 9.92680654,16.0480673 L14.1108826,16.0480673 C15.011085,16.0480673 15.6154612,15.3557819 15.6154612,14.3266073 L15.6154612,14.3005816 C15.6154612,13.2705395 15.011085,12.5791215 14.1108826,12.5791215 L14.088327,12.5791215 C13.8543842,12.5791215 13.6635286,12.3882659 13.6635286,12.1543232 L13.6635286,7.42920027 C13.6635286,4.835877 11.9195129,2.64219388 9.54278187,1.95771616 L9.54278187,1.69890435 C9.54278187,0.762555024 8.78022684,0 7.84387752,0 Z M6.94020499,1.69890435 C6.94020499,1.24027247 7.31295184,0.867525624 7.77158372,0.867525624 L7.84387752,0.867525624 C8.3025094,0.867525624 8.67525624,1.24027247 8.67525624,1.69890435 L8.67525624,1.78016258 C8.4436269,1.75211259 8.20881663,1.73505125 7.96937956,1.73505125 L7.80888732,1.73505125 C7.51277191,1.73505125 7.2235967,1.75760691 6.94020499,1.80156155 L6.94020499,1.69890435 Z M7.87424092,17.1336311 L7.84156412,17.1336311 C7.24181474,17.1336311 6.74356585,16.6252611 6.65999422,16.049224 L9.05696752,16.049224 C8.97108248,16.6252611 8.47312277,17.1336311 7.87424092,17.1336311 Z M14.0972914,13.4466472 L14.1108826,13.4466472 C14.6857629,13.4466472 14.7479356,14.0440832 14.7479356,14.3005816 L14.7479356,14.3266073 C14.7479356,14.5842624 14.6857629,15.1805417 14.1108826,15.1805417 L1.72146001,15.1805417 C1.2503936,15.1816984 0.867525624,14.7988304 0.867525624,14.327764 L0.867525624,14.3017383 C0.867525624,13.8306719 1.2503936,13.4478039 1.72146001,13.4478039 L14.0972914,13.4478039 L14.0972914,13.4466472 Z M12.796003,7.42920027 L12.796003,12.1543232 C12.796003,12.3035376 12.8231854,12.4458118 12.8694535,12.5791215 L2.96288918,12.5791215 C3.00915721,12.4458118 3.03633968,12.3035376 3.03633968,12.1543232 L3.03633968,7.37512451 C3.03633968,4.74305176 5.17681457,2.60257687 7.80888732,2.60257687 L7.96937956,2.60257687 C10.630659,2.60257687 12.796003,4.76792083 12.796003,7.42920027 Z" fill="#717171"></path>
  </g>
</svg>
