<?xml version="1.0" encoding="UTF-8"?>
<svg width="21px" height="18px" viewBox="0 0 21 18" version="1.1" xmlns="http://www.w3.org/2000/svg" xmlns:xlink="http://www.w3.org/1999/xlink">
  <g stroke="none" stroke-width="1" fill="none" fill-rule="evenodd">
    <g fill-rule="nonzero" fill="#717171">
      <path d="M1.5003,17.8128 L18.7506,17.8128 C19.5759,17.8128 20.2509,17.1378 20.2509,16.3125 L20.2509,9.1872 C20.2509,9.14940675 20.2509,9.11249325 20.2131068,9.0747 L17.5878068,1.4247 C17.3250068,0.675 16.6131068,0.1872 15.8256068,0.1872 L4.42530675,0.1872 C3.63780675,0.1872 2.92500675,0.675 2.66310675,1.4247 L0.03780675,9.0747 C1.35e-05,9.11249325 1.35e-05,9.1502865 1.35e-05,9.1872 L1.35e-05,16.3125 C1.35e-05,17.1378 0.6750135,17.8128 1.5003135,17.8128 L1.5003,17.8128 Z M19.5003,16.3125 C19.5003,16.7247 19.1628,17.0622 18.7506,17.0622 L1.5003,17.0622 C1.0881,17.0622 0.7506,16.7247 0.7506,16.3125 L0.7506,9.5625 L6.7878,9.5625 C6.97500675,11.25 8.4006,12.5622 10.125,12.5622 C11.8503,12.5622 13.275,11.25 13.4622,9.5625 L19.5003,9.5625 L19.5003,16.3125 Z M4.9878,8.8128 L5.8131,6.075 C5.85089325,5.92470675 6.00030675,5.8122 6.1506,5.8122 L14.0634,5.8122 C14.2136933,5.8122 14.3631,5.9247 14.4009,6.0372 L15.2262,8.8119 L13.124745,8.81277907 C12.899745,8.81277907 12.749445,8.96307233 12.749445,9.18807908 C12.749445,10.6505791 11.586645,11.8133791 10.124145,11.8133791 C8.661645,11.8133791 7.498845,10.6505791 7.498845,9.18807908 C7.498845,8.96307908 7.34855175,8.81277907 7.123545,8.81277907 L4.9878,8.8128 Z M3.375,1.6875 C3.52529325,1.2375 3.9753,0.9378 4.4253,0.9378 L15.8256,0.9378 C16.3134,0.9378 16.7256,1.2375 16.8759,1.6875 L19.3509,8.8128 L16.0506,8.8128 L15.1506,5.8131 C15.0003068,5.3631 14.5503,5.0634 14.1003,5.0634 L6.1497,5.06252115 C5.6619,5.06252115 5.2497,5.36222115 5.0625,5.85002115 L4.1625,8.81282115 L0.9,8.81282115 L3.375,1.6875 Z" id="Shape"></path>
    </g>
  </g>
</svg>
