<?xml version="1.0" encoding="UTF-8"?>
<svg width="16px" height="18px" viewBox="0 0 16 18" version="1.1" xmlns="http://www.w3.org/2000/svg" xmlns:xlink="http://www.w3.org/1999/xlink">
  <g stroke="none" stroke-width="1" fill="none" fill-rule="evenodd">
    <g fill="#717171">
      <path d="M13.4619718,17.8276056 L2.45901006,17.8265915 C1.08165151,17.8276056 0.121255533,16.8928732 0.121255533,15.5540282 L0.121255533,13.1374648 C0.121255533,10.4280845 0.121255533,7.71743662 0.118126358,5.00805634 C0.1170833,4.60191549 0.262850704,4.26726761 0.561165392,3.98408451 C1.71843863,2.88785915 2.86945352,1.78656338 4.01838229,0.682225352 C4.37197907,0.342760563 4.80484829,0.171380282 5.30290865,0.171380282 L13.501608,0.172394366 C14.8025626,0.173408451 15.7843412,1.13197183 15.7853843,2.40261972 C15.7864274,3.81853521 15.7864274,5.23470423 15.7864274,6.65087324 L15.7864274,15.5618873 C15.7864274,16.2035493 15.5551292,16.7828451 15.1345159,17.1927887 C14.7159887,17.6019718 14.121967,17.8276056 13.4619718,17.8276056 L13.4619718,17.8276056 Z M13.4619718,17.1276338 C13.9355203,17.1276338 14.3378801,16.9790704 14.6262857,16.697662 C14.9144306,16.416507 15.0672386,16.0232958 15.0672386,15.5618873 L15.0672386,6.65087324 C15.0672386,5.23470423 15.0672386,3.8195493 15.0661956,2.40338028 C15.0651525,1.50338028 14.4226286,0.873380282 13.5026511,0.873380282 L5.30499477,0.872366197 C4.99416338,0.872366197 4.74669779,0.970478873 4.52661247,1.18140845 C3.37559759,2.28574648 2.22353964,3.3888169 1.0654841,4.48605634 C0.906678471,4.63664789 0.839401207,4.79205634 0.839401207,5.00805634 C0.842269618,7.71743662 0.842269618,10.4280845 0.842269618,13.1374648 L0.842269618,15.5540282 C0.842269618,16.5095493 1.47697062,17.1266197 2.45901006,17.1266197 L13.4609288,17.1266197 L13.4619718,17.1276338 Z"></path>
      <path d="M7.95540604,15.8133803 L2.63815533,15.8133803 C2.30202978,15.8133803 2.19407324,15.7114648 2.19407324,15.3935493 L2.19407324,6.13495775 C2.19407324,6.10022535 2.19615936,6.06473239 2.19928853,6.02315493 L2.20945835,5.82414085 L4.66533924,5.82414085 C5.49430986,5.82414085 5.93343742,5.40025352 5.93343742,4.60014085 L5.93343742,2.1876338 L13.2348459,2.1876338 C13.6207775,2.1876338 13.7146527,2.27864789 13.7156958,2.65005634 L13.7156958,15.3737746 C13.7156958,15.7104507 13.6116507,15.8133803 13.2716137,15.8133803 L7.95540604,15.8133803 Z M2.49656016,15.5251268 C2.50281851,15.5251268 2.53723944,15.5332394 2.63815533,15.5332394 L13.2705706,15.5332394 C13.3824386,15.5332394 13.4111227,15.5241127 13.4192064,15.5203099 C13.4171203,15.5172676 13.4262471,15.4855775 13.4262471,15.3737746 L13.4262471,2.65005634 C13.4262471,2.55092958 13.4212926,2.49160563 13.4121658,2.47385915 C13.401996,2.47183099 13.3396732,2.46676056 13.2348459,2.46676056 L6.22158229,2.46676056 L6.22158229,4.59912676 C6.22158229,5.55464789 5.65441932,6.10326761 4.66533924,6.10326761 L2.48247887,6.10326761 C2.48247887,6.11416901 2.48143581,6.12405634 2.48143581,6.13394366 L2.48143581,15.3925352 C2.48143581,15.4944507 2.49160563,15.5192958 2.49447404,15.5251268 L2.49656016,15.5251268 L2.49656016,15.5251268 Z" id="Fill-2"></path>
      <path d="M9.46497223,4.29692958 L9.46497223,3.70673239 L9.8459493,3.70673239 L9.8459493,4.26929577 C9.99667123,4.29414085 10.1424386,4.30783099 10.2819477,4.34459155 C10.3959018,4.37425352 10.5038584,4.42876056 10.6128579,4.47616901 C10.6272,4.48225352 10.6423243,4.51394366 10.6373698,4.5276338 C10.5904322,4.64856338 10.5406262,4.76746479 10.488734,4.89219718 C10.3387944,4.80498592 10.1820748,4.7484507 10.0138817,4.72183099 C9.81439678,4.69014085 9.61360805,4.67442254 9.41699155,4.74059155 C9.21933199,4.80701408 9.08712435,4.9368169 9.05348571,5.14064789 C9.02089014,5.34169014 9.08399517,5.51915493 9.2641835,5.62994366 C9.41490543,5.72197183 9.5778833,5.79929577 9.74190423,5.86850704 C9.95494889,5.95774648 10.1656467,6.04774648 10.3552225,6.17856338 C10.6965634,6.41535211 10.8399839,6.74011268 10.7839195,7.13915493 C10.7299412,7.52247887 10.4947316,7.78005634 10.1330511,7.9283662 C10.0313529,7.97019718 9.92235332,7.99478873 9.80813843,8.02952113 L9.80813843,8.6364507 L9.40082414,8.6364507 L9.40082414,8.05030986 C9.26027203,8.03053521 9.12363139,8.01659155 8.99038068,7.99098592 C8.81697223,7.95828169 8.65425513,7.89667606 8.50144708,7.80971831 C8.46467928,7.78892958 8.45763863,7.76915493 8.47276298,7.72935211 C8.51552837,7.61856338 8.55438229,7.50650704 8.59714769,7.38887324 C8.63182938,7.40661972 8.66025272,7.42233803 8.69076217,7.43830986 C8.95465594,7.57495775 9.2347171,7.65405634 9.53407485,7.64239437 C9.64516056,7.63833803 9.76250463,7.61653521 9.86420282,7.57597183 C10.3163686,7.39876056 10.3836459,6.858 9.99667123,6.55783099 C9.840734,6.43715493 9.65950262,6.36185915 9.47618511,6.28960563 C9.24697304,6.19935211 9.02793078,6.09338028 8.83444346,5.94 C8.38019155,5.57847887 8.42791147,4.88611268 8.88033803,4.54461972 C9.0300169,4.4315493 9.1979493,4.35828169 9.38230986,4.31771831 C9.40890785,4.31087324 9.43341972,4.30478873 9.46497223,4.29692958 L9.46497223,4.29692958 Z"></path>
      <polygon points="4.22621167 9.86450704 12.0053408 9.86450704 12.0053408 9.5843662 4.22621167 9.5843662"></polygon>
      <polygon points="4.22621167 11.952 12.0053408 11.952 12.0053408 11.6718592 4.22621167 11.6718592"></polygon>
      <polygon points="4.22621167 14.039493 12.0053408 14.039493 12.0053408 13.7593521 4.22621167 13.7593521"></polygon>
    </g>
  </g>
</svg>
