<?xml version="1.0" encoding="UTF-8"?>
<svg width="17px" height="20px" viewBox="0 0 17 20" version="1.1" xmlns="http://www.w3.org/2000/svg" xmlns:xlink="http://www.w3.org/1999/xlink">
  <g stroke="none" stroke-width="1" fill="none" fill-rule="evenodd">
    <g fill="#717171">
      <path d="M15.1052902,19.8728814 L2.99032357,19.8728814 C2.07387776,19.8728814 1.35336415,19.1735593 1.35336415,18.2840678 L1.35336415,12.2457627 L2.00821777,12.2457627 L2.00821777,18.2840678 C2.00821777,18.8240678 2.43395994,19.2372881 2.99032357,19.2372881 L15.1052902,19.2372881 C15.6620031,19.2372881 16.087396,18.8240678 16.087396,18.2840678 L16.087396,1.75864407 C16.087396,1.21830508 15.6620031,0.805084746 15.1052902,0.805084746 L2.99032357,0.805084746 C2.43395994,0.805084746 2.00821777,1.21830508 2.00821777,1.75864407 L2.00821777,7.16101695 L1.35336415,7.16101695 L1.35336415,1.75864407 C1.35336415,0.868474576 2.07387776,0.169491525 2.99032357,0.169491525 L15.1052902,0.169491525 C16.0220853,0.169491525 16.7425989,0.868474576 16.7425989,1.75864407 L16.7425989,18.2840678 C16.7425989,19.1735593 16.0220853,19.8728814 15.1052902,19.8728814 L15.1052902,19.8728814 Z"></path>
      <path d="M12.5515357,3.02983051 L5.54442732,3.02983051 C5.05337442,3.02983051 4.62763225,2.61661017 4.62763225,2.13966102 L4.62763225,0.487457627 L5.28248588,0.487457627 L5.28248588,2.13966102 C5.28248588,2.26711864 5.4134566,2.39389831 5.54442732,2.39389831 L12.5515357,2.39389831 C12.6821572,2.39389831 12.8134771,2.26711864 12.8134771,2.13966102 L12.8134771,0.487457627 L13.4679815,0.487457627 L13.4679815,2.13966102 C13.4679815,2.61661017 13.0425886,3.02983051 12.5515357,3.02983051 L12.5515357,3.02983051 Z"></path>
      <polygon points="15.4328916 17.9661017 2.66307139 17.9661017 2.66307139 13.5169492 3.31792501 13.5169492 3.31792501 17.3305085 14.7776888 17.3305085 14.7776888 2.39389831 13.1407293 2.39389831 13.1407293 1.75864407 15.4328916 1.75864407"></polygon>
      <polygon points="3.31792501 8.11457627 2.66307139 8.11457627 2.66307139 1.75864407 4.95523369 1.75864407 4.95523369 2.39389831 3.31792501 2.39389831"></polygon>
      <path d="M6.72316384,14.2477966 L4.62763225,13.580339 L0.207457627,9.29016949 L1.5824756,7.95559322 L6.00299949,12.2457627 L6.72316384,14.2477966 Z M4.98771443,13.040339 L5.67539805,13.2627119 L5.44628659,12.5633898 L1.5824756,8.81355932 L1.1242527,9.25830508 L4.98771443,13.040339 Z"></path>
      <polygon points="2.01764766 8.81898305 2.48041089 9.26779661 1.78574217 9.94169492 1.3233282 9.49288136"></polygon>
      <polygon points="5.2838829 11.9650847 5.74629687 12.4138983 4.82007191 13.3128814 4.35765794 12.8640678"></polygon>
      <polygon points="4.95523369 5.57186441 12.8134771 5.57186441 12.8134771 4.93627119 4.95523369 4.93627119"></polygon>
      <polygon points="4.95523369 7.16101695 10.8489163 7.16101695 10.8489163 6.52542373 4.95523369 6.52542373"></polygon>
      <polygon points="4.95523369 8.75016949 12.4858757 8.75016949 12.4858757 8.11457627 4.95523369 8.11457627"></polygon>
    </g>
  </g>
</svg>
