<?xml version="1.0" encoding="UTF-8"?>
<svg width="14px" height="18px" viewBox="0 0 14 18" version="1.1" xmlns="http://www.w3.org/2000/svg" xmlns:xlink="http://www.w3.org/1999/xlink">
  <g stroke="none" stroke-width="1" fill="none" fill-rule="evenodd">
    <g transform="translate(-179.000000, -352.000000)" fill="#717171">
      <g transform="translate(179.000000, 352.000000)">
        <path d="M13.725,0.830571429 L13.725,15.7016571 L12.9214286,16.1035714 L12.9214286,0.835714286 L0.867857143,0.835714286 L0.867857143,16.1035714 L0.0642857143,15.7016571 L0.0642857143,0.830571429 C0.0642857143,0.389828571 0.429942857,0.0321428571 0.867857143,0.0321428571 L12.9214286,0.0321428571 C13.3655143,0.0321428571 13.725,0.3888 13.725,0.830571429 L13.725,0.830571429 Z"></path>
        <path d="M7.29951429,8.15914286 C7.71531429,8.05885714 8.08688571,7.8228 8.28282857,7.407 C8.68448571,6.55817143 8.28077143,5.95954286 7.42191429,5.5116 C7.29848571,5.44731429 7.33551429,5.46428571 6.98502857,5.30254286 C6.66051429,5.15288571 6.6888,5.166 6.58234286,5.11071429 C6.06085714,4.83737143 5.91634286,4.62265714 6.08194286,4.27294286 C6.28405714,3.84505714 7.21105714,3.87025714 7.5366,4.10117143 L7.86394286,4.33337143 L8.32911429,3.67842857 L8.00151429,3.4452 C7.81662857,3.31482857 7.56977143,3.21634286 7.29951429,3.16311429 L7.29951429,2.44285714 L6.49594286,2.44285714 L6.49594286,3.14588571 C6.01765714,3.22122857 5.57588571,3.46242857 5.35474286,3.9294 C4.95411429,4.77617143 5.35577143,5.37582857 6.20948571,5.823 C6.3342,5.88728571 6.30411429,5.87314286 6.64842857,6.0318 C6.97911429,6.18454286 6.94491429,6.16834286 7.05034286,6.22362857 C7.57671429,6.498 7.72225714,6.71374286 7.55665714,7.06345714 C7.35377143,7.49237143 6.42651429,7.46614286 6.10122857,7.23522857 L5.77362857,7.00302857 L5.30871429,7.659 L5.63708571,7.8912 C5.85694286,8.0478 6.16448571,8.15734286 6.49594286,8.19848571 L6.49594286,8.87142857 L7.29951429,8.87142857 L7.29951429,8.15914286 Z"></path>
        <polygon points="3.27857143 11.2821429 10.5107143 11.2821429 10.5107143 10.4785714 3.27857143 10.4785714"></polygon>
        <polygon points="3.27857143 13.6928571 8.1 13.6928571 8.1 12.8892857 3.27857143 12.8892857"></polygon>
        <polygon points="4.24877143 15.7016571 2.07308571 17.8773429 1.5048 17.3088 3.68022857 15.1333714"></polygon>
        <polygon points="2.64162857 17.3088 2.07308571 17.8773429 0.0642857143 15.8685429 0.0642857143 15.5350286 0.465942857 15.1333714"></polygon>
        <polygon points="7.46305714 15.7016571 5.28737143 17.8773429 4.71908571 17.3088 6.89451429 15.1333714"></polygon>
        <polygon points="3.68022857 15.1333714 5.85591429 17.3088 5.28737143 17.8773429 3.11194286 15.7016571"></polygon>
        <polygon points="10.6773429 15.7016571 8.50165714 17.8773429 7.93337143 17.3088 10.1088 15.1333714"></polygon>
        <polygon points="6.89451429 15.1333714 9.0702 17.3088 8.50165714 17.8773429 6.32622857 15.7016571"></polygon>
        <polygon points="11.1476571 17.3088 11.7159429 17.8773429 13.725 15.8685429 13.725 15.5350286 13.3230857 15.1333714"></polygon>
        <polygon points="10.1088 15.1333714 12.2844857 17.3088 11.7159429 17.8773429 9.54051429 15.7016571"></polygon>
      </g>
    </g>
  </g>
</svg>
