<?xml version="1.0" encoding="UTF-8"?>
<svg width="20px" height="18px" viewBox="0 0 20 18" version="1.1" xmlns="http://www.w3.org/2000/svg" xmlns:xlink="http://www.w3.org/1999/xlink">
  <g stroke="none" stroke-width="1" fill="none" fill-rule="evenodd">
    <g fill-rule="nonzero" fill="#717171">
        <path d="M11.581125,0.646125 L11.581125,6.138 L11.581125,7.0901625 C11.7744863,6.9788325 11.9663625,6.8689725 12.15975,6.7576425 C11.4288,6.3518925 10.69785,5.9446425 9.9668625,5.5388925 C9.755925,5.421705 9.5904,5.52131438 9.411675,5.62092375 C9.20220375,5.73811125 8.9912625,5.8538325 8.7817875,5.97102 C8.336475,6.21858 7.892625,6.46467 7.4473125,6.712245 C7.42094513,6.72689325 7.39311375,6.74300663 7.3667475,6.75765375 C7.560105,6.86898375 7.751985,6.97884375 7.9453725,7.09017375 L7.9453725,1.59829875 L7.9453725,0.64613625 L7.5615975,1.02991125 L11.9663475,1.02991125 C12.4629225,1.02991125 12.4629225,0.26086125 11.9663475,0.26086125 L7.5615975,0.26086125 C7.35212625,0.26086125 7.1778225,0.43517625 7.1778225,0.64463625 L7.1778225,6.13651125 L7.1778225,7.08867375 C7.1778225,7.38457125 7.50301875,7.56181125 7.7564475,7.42119375 C8.4903225,7.01398125 9.224235,6.60526875 9.9595725,6.19805625 L9.5713725,6.19805625 C10.3052475,6.60526875 11.03916,7.01398125 11.7744975,7.42119375 C12.027915,7.56181875 12.3531225,7.3860375 12.3531225,7.08867375 L12.3531225,1.59679875 L12.3531225,0.64463625 C12.350193,0.14952375 11.5811475,0.14952375 11.5811475,0.646101 L11.581125,0.646125 Z"></path>
        <path d="M3.441,12.165375 L5.6031,12.165375 C6.099675,12.165375 6.099675,11.396325 5.6031,11.396325 L3.441,11.396325 C2.944425,11.396325 2.944425,12.165375 3.441,12.165375 Z"></path>
        <path d="M3.441,14.613375 L8.91675,14.613375 L9.6814125,14.613375 C10.1779875,14.613375 10.1779875,13.844325 9.6814125,13.844325 L4.2056625,13.844325 L3.441,13.844325 C2.944425,13.844325 2.944425,14.613375 3.441,14.613375 L3.441,14.613375 Z"></path>
        <path d="M18.5565,15.208125 C18.5477111,15.9552 18.065775,16.61145 17.35095,16.832625 C17.1282937,16.9014713 16.910025,16.9044038 16.678575,16.9044038 L14.8182375,16.9044038 L8.0228625,16.9044038 L2.8872375,16.9044038 C2.7129225,16.9044038 2.5298175,16.9087984 2.367225,16.8795015 C1.6435875,16.7476665 1.0591125,16.139739 0.980025,15.411714 C0.93168375,14.967864 0.969771375,14.502039 0.969771375,14.0567265 L0.969771375,7.5174765 L0.969771375,2.7624765 C0.969771375,1.7722515 1.75198387,1.0310265 2.73050887,1.0310265 L4.29935887,1.0310265 L10.9293589,1.0310265 L16.4531089,1.0310265 L16.8515464,1.0310265 C17.4667714,1.0310265 18.0219589,1.35622275 18.3339589,1.885014 C18.6239989,2.375739 18.5580814,2.985114 18.5580814,3.5461515 L18.5580814,9.8435265 L18.5580814,15.0687765 C18.5566166,15.1141853 18.5566166,15.1610603 18.5566166,15.2079353 C18.5566166,15.7045103 19.3256666,15.7045103 19.3256666,15.2079353 L19.3256666,10.9816853 L19.3256666,4.25643525 L19.3256666,2.74619775 C19.3256666,1.37512275 18.2006666,0.26182275 16.8325166,0.26182275 L12.4806416,0.26182275 L5.50226662,0.26182275 L3.18780412,0.26182275 L2.70292912,0.26182275 C2.08477912,0.26182275 1.52081662,0.47715525 1.04764162,0.87119775 C0.504191625,1.32382275 0.202429125,2.04161025 0.202429125,2.74181025 L0.202429125,3.20178525 L0.202429125,5.62316025 L0.202429125,12.5636603 L0.202429125,14.8502978 L0.202429125,15.209184 C0.202429125,16.0734465 0.666791625,16.8673965 1.39627912,17.321484 C1.99395412,17.6935553 2.64724162,17.6745128 3.31376662,17.6745128 L5.74541662,17.6745128 L12.7519166,17.6745128 L16.8547916,17.6745128 C18.2112416,17.6745128 19.3098791,16.5553628 19.3259666,15.2091878 C19.331826,14.7111503 18.5627666,14.7111503 18.5569166,15.207723 L18.5565,15.208125 Z"></path>
    </g>
  </g>
</svg>
