<?xml version="1.0" encoding="UTF-8"?>
<svg width="17px" height="14px" viewBox="0 0 17 14" version="1.1" xmlns="http://www.w3.org/2000/svg" xmlns:xlink="http://www.w3.org/1999/xlink">
  <g stroke="none" stroke-width="1" fill="none" fill-rule="evenodd">
    <path d="M1.09375,0 C0.49,0 0,0.49 0,1.09375 C0,1.6975 0.49,2.1875 1.09375,2.1875 C1.6975,2.1875 2.1875,1.6975 2.1875,1.09375 C2.1875,0.49 1.6975,0 1.09375,0 Z M4.333875,0.65625 L4.333875,0.65625 C4.092375,0.667625 3.90570833,0.872666667 3.91708333,1.11416667 C3.92845833,1.35566667 4.1335,1.542625 4.375,1.53125 L16.1875,1.53125 C16.4313333,1.53475 16.6308333,1.33758333 16.6308333,1.09375 C16.6308333,0.849916667 16.4313333,0.65275 16.1875,0.65625 L4.375,0.65625 C4.36129167,0.655083333 4.34758333,0.655083333 4.333875,0.65625 Z M1.09375,3.9375 C0.49,3.9375 0,4.4275 0,5.03125 C0,5.635 0.49,6.125 1.09375,6.125 C1.6975,6.125 2.1875,5.635 2.1875,5.03125 C2.1875,4.4275 1.6975,3.9375 1.09375,3.9375 Z M4.333875,4.59375 L4.333875,4.59375 C4.092375,4.605125 3.90570833,4.81016667 3.91708333,5.05166667 C3.92845833,5.29316667 4.1335,5.480125 4.375,5.46875 L16.1875,5.46875 C16.4313333,5.47225 16.6308333,5.27508333 16.6308333,5.03125 C16.6308333,4.78741667 16.4313333,4.59025 16.1875,4.59375 L4.375,4.59375 C4.36129167,4.59258333 4.34758333,4.59258333 4.333875,4.59375 Z M1.09375,7.875 C0.49,7.875 0,8.365 0,8.96875 C0,9.5725 0.49,10.0625 1.09375,10.0625 C1.6975,10.0625 2.1875,9.5725 2.1875,8.96875 C2.1875,8.365 1.6975,7.875 1.09375,7.875 Z M4.333875,8.53125 L4.333875,8.53125 C4.092375,8.542625 3.90570833,8.74766667 3.91708333,8.98916667 C3.92845833,9.23066667 4.1335,9.417625 4.375,9.40625 L16.1875,9.40625 C16.4313333,9.40975 16.6308333,9.21258333 16.6308333,8.96875 C16.6308333,8.72491667 16.4313333,8.52775 16.1875,8.53125 L4.375,8.53125 C4.36129167,8.53008333 4.34758333,8.53008333 4.333875,8.53125 Z M1.09375,11.8125 C0.49,11.8125 0,12.3025 0,12.90625 C0,13.51 0.49,14 1.09375,14 C1.6975,14 2.1875,13.51 2.1875,12.90625 C2.1875,12.3025 1.6975,11.8125 1.09375,11.8125 Z M4.333875,12.46875 L4.333875,12.46875 C4.092375,12.480125 3.90570833,12.6851667 3.91708333,12.9266667 C3.92845833,13.1681667 4.1335,13.355125 4.375,13.34375 L16.1875,13.34375 C16.4313333,13.34725 16.6308333,13.1500833 16.6308333,12.90625 C16.6308333,12.6624167 16.4313333,12.46525 16.1875,12.46875 L4.375,12.46875 C4.36129167,12.4675833 4.34758333,12.4675833 4.333875,12.46875 Z" fill="#717171"></path>
  </g>
</svg>
