<?xml version="1.0" encoding="UTF-8"?>
<svg width="19px" height="18px" viewBox="0 0 19 18" version="1.1" xmlns="http://www.w3.org/2000/svg" xmlns:xlink="http://www.w3.org/1999/xlink">
  <g id="Dashboard" stroke="none" stroke-width="1" fill="none" fill-rule="evenodd">
    <path d="M17.2170844,10.0026366 L9.76068818,17.6620832 L9.76068818,17.6620832 L9.42277142,18 L5.29958616,13.7641758 C5.11906351,13.5836532 5.11906351,13.2913927 5.29958616,13.1330975 C5.48040917,12.9522745 5.77266963,12.9522745 5.93096486,13.1330975 L9.42277142,16.6927878 L16.5634783,9.37125788 L16.5634783,9.37125788 C18.4561125,7.43416881 18.4561125,4.28027901 16.5634783,2.34318993 C15.6623669,1.41985115 14.4458666,0.901111371 13.1620832,0.901111371 C11.8786003,0.901111371 10.6617996,1.41985115 9.76068818,2.34318993 L9.42277142,2.6811067 L9.10708207,2.34318993 C8.2059707,1.41985115 6.98916998,0.901111371 5.70568701,0.901111371 C4.42220405,0.901111371 3.20540333,1.41985115 2.30429196,2.34318993 C0.411657711,4.28027901 0.411657711,7.43416881 2.30429196,9.37125788 C2.4848146,9.5520809 2.4848146,9.84404098 2.30429196,10.0026366 C2.12346895,10.1831592 1.83150886,10.1831592 1.67291326,10.0026366 C-0.557637753,7.72763074 -0.557637753,4.01054634 1.67291326,1.71181123 C2.75484765,0.607649434 4.19572473,0 5.72791443,0 L5.72791443,0 C7.1018089,0 8.43124854,0.495010513 9.46722625,1.41985115 C10.5035043,0.496211995 11.8104162,0 13.2068384,0 C14.7390281,0 16.1799052,0.607649434 17.2618396,1.71181123 C19.4476354,4.01054634 19.4476354,7.72763074 17.2170844,10.0026366 Z M5.97541968,11.9619531 C6.22322531,11.9619531 6.42597537,11.7589026 6.42597537,11.5113974 C6.42597537,11.2638921 6.22322531,11.0608417 5.97541968,11.0608417 L4.17319694,11.0608417 L4.17319694,9.25861896 C4.17319694,9.01111371 3.97044688,8.80806328 3.72264126,8.80806328 C3.475136,8.80806328 3.27208557,9.01111371 3.27208557,9.25861896 L3.27208557,11.0608417 L1.46986283,11.0608417 C1.22235757,11.0608417 1.01930715,11.2638921 1.01930715,11.5113974 C1.01930715,11.7589026 1.22235757,11.9619531 1.46986283,11.9619531 L3.27208557,11.9619531 L3.27208557,13.7641758 C3.27208557,14.0116811 3.475136,14.2147315 3.72264126,14.2147315 C3.97044688,14.2147315 4.17319694,14.0116811 4.17319694,13.7641758 L4.17319694,11.9619531 L5.97541968,11.9619531 Z" fill="#717171"></path>
  </g>
</svg>
