<?xml version="1.0" encoding="UTF-8"?>
<svg width="182px" height="40px" viewBox="0 0 182 40" version="1.1" xmlns="http://www.w3.org/2000/svg" xmlns:xlink="http://www.w3.org/1999/xlink">
    <title>Group@1x</title>
    <defs>
        <polygon id="path-1" points="6.25e-05 0.0756375 12.1834375 0.0756375 12.1834375 15 6.25e-05 15"></polygon>
        <polygon id="path-3" points="0 15.049375 129.982125 15.049375 129.982125 0.125 0 0.125"></polygon>
    </defs>
    <g id="Page-1" stroke="none" stroke-width="1" fill="none" fill-rule="evenodd">
        <g id="Group">
            <text id="eCommerce-Framework™" font-family="ArialMT, Arial" font-size="11" font-weight="normal" fill="#84888C">
                <tspan x="53" y="35">eCommerce Framework™</tspan>
            </text>
            <g id="Group-2">
                <rect id="Rectangle" fill="#EAEFF4" x="0" y="0" width="40" height="40" rx="5"></rect>
                <g id="Group-Copy" transform="translate(8.000000, 8.000000)">
                    <path d="M0,2.00782013 C0,0.898931692 0.897026226,0 2.00494659,0 L24,0 L24,4.8 L0,4.8 L0,2.00782013 Z" id="Rectangle-4" fill="#009FDC"></path>
                    <polygon id="Rectangle-4-Copy-2" fill="#0055CA" points="0 9.6 19.2 9.6 14.4 14.4 0 14.4"></polygon>
                    <path d="M0,19.2 L24,19.2 L24,24 L2.00494659,24 C0.897645164,24 0,23.0971567 0,21.9921799 L0,19.2 Z" id="Rectangle-4-Copy" fill="#0F4170"></path>
                </g>
            </g>
            <g id="Group-41" transform="translate(52.000000, 5.000000)">
                <path d="M7.146725,0.426425 C8.72885,0.426425 10.29085,0.902425 11.436725,1.7518 L11.0006,2.364425 C9.95435,1.5748 8.56935,1.121675 7.146725,1.121675 C3.5471,1.121675 1.093225,3.65005 1.093225,7.4093 C1.093225,11.3853 3.487475,14.055925 7.146725,14.055925 C8.72885,14.055925 10.250725,13.5028 11.25985,12.57355 L11.755475,13.106675 C10.5871,14.1753 8.925725,14.7483 7.12435,14.7483 C3.011475,14.7483 0.3011,11.821175 0.3011,7.4093 C0.3011,3.236675 3.09135,0.426425 7.146725,0.426425" id="Fill-1" fill="#1D252D"></path>
                <path d="M7.1464375,0.5011875 C3.0964375,0.5011875 0.3755625,3.2771875 0.3755625,7.4091875 C0.3755625,11.7543125 3.0876875,14.6738125 7.1243125,14.6738125 C8.9055625,14.6738125 10.5089375,14.1161875 11.6491875,13.1021875 L11.2554375,12.6781875 C10.2335625,13.5885625 8.7036875,14.1304375 7.1464375,14.1304375 C3.4808125,14.1304375 1.0183125,11.4294375 1.0183125,7.4091875 C1.0183125,3.6038125 3.4808125,1.0470625 7.1464375,1.0470625 C8.5374375,1.0470625 9.9314375,1.4880625 10.9841875,2.2590625 L11.3329375,1.7685625 C10.2143125,0.9621875 8.6931875,0.5011875 7.1464375,0.5011875 M7.1243125,14.8230625 C2.9984375,14.8230625 0.2263125,11.8435625 0.2263125,7.4091875 C0.2263125,3.1879375 3.0071875,0.3518125 7.1464375,0.3518125 C8.7520625,0.3518125 10.3320625,0.8404375 11.4811875,1.6916875 L11.5400625,1.7354375 L11.0169375,2.4703125 L10.9556875,2.4238125 C9.9215625,1.6438125 8.5334375,1.1964375 7.1464375,1.1964375 C3.5705625,1.1964375 1.1675625,3.6929375 1.1675625,7.4091875 C1.1675625,11.3399375 3.5705625,13.9811875 7.1464375,13.9811875 C8.6955625,13.9811875 10.2149375,13.4343125 11.2093125,12.5186875 L11.2641875,12.4681875 L11.8614375,13.1113125 L11.8054375,13.1619375 C10.6343125,14.2330625 8.9720625,14.8230625 7.1243125,14.8230625" id="Fill-3" fill="#1D252D"></path>
                <path d="M7.146725,0.653075 C3.1876,0.653075 0.527725,3.368075 0.527725,7.4092 C0.527725,11.729825 3.116975,14.521575 7.12435,14.521575 C8.807475,14.521575 10.326475,14.0147 11.430475,13.08995 L11.24385,12.8892 C10.1971,13.76495 8.68435,14.28245 7.146725,14.28245 C3.39035,14.28245 0.8666,11.520325 0.8666,7.4092 C0.8666,3.512825 3.39035,0.895075 7.146725,0.895075 C8.536225,0.895075 9.876475,1.302575 10.94835,2.04695 L11.1206,1.8052 C10.040225,1.07095 8.605975,0.653075 7.146725,0.653075 M7.12435,14.974825 C2.9076,14.974825 0.074475,11.93445 0.074475,7.4092 C0.074475,5.30545 0.7546,3.502075 2.0416,2.194075 C3.32535,0.88945 5.090725,0.199825 7.146725,0.199825 C8.784225,0.199825 10.3971,0.699075 11.571725,1.5697 L11.75035,1.702075 L11.0501,2.685825 L10.8641,2.545325 C9.8561,1.7847 8.5011,1.348325 7.146725,1.348325 C3.661475,1.348325 1.319975,3.784075 1.319975,7.4092 C1.319975,11.3092 3.6071,13.8292 7.146725,13.8292 C8.65885,13.8292 10.1391,13.29745 11.10635,12.406825 L11.27235,12.254075 L12.076975,13.1197 L11.908475,13.273825 C10.709225,14.370825 9.0101,14.974825 7.12435,14.974825" id="Fill-5" fill="#1D252D"></path>
                <g id="Group-9" transform="translate(0.000000, 0.049375)">
                    <mask id="mask-2" fill="white">
                        <use xlink:href="#path-1"></use>
                    </mask>
                    <g id="Clip-8"></g>
                    <path d="M7.1464375,0.6783875 C3.2323125,0.6783875 0.6024375,3.3633875 0.6024375,7.3597625 C0.6024375,11.6350125 3.1623125,14.3973875 7.1243125,14.3973875 C8.7509375,14.3973875 10.2376875,13.9136375 11.3219375,13.0332625 L11.2366875,12.9422625 C10.1828125,13.7981375 8.6599375,14.3076375 7.1464375,14.3076375 C3.3454375,14.3076375 0.7920625,11.5153875 0.7920625,7.3597625 C0.7920625,3.4187625 3.3454375,0.7711375 7.1464375,0.7711375 C8.5176875,0.7711375 9.8585625,1.1697625 10.9305625,1.8947625 L11.0151875,1.7752625 C9.9565625,1.0773875 8.5515625,0.6783875 7.1464375,0.6783875 M7.1243125,14.5467625 C3.0719375,14.5467625 0.4531875,11.7256375 0.4531875,7.3597625 C0.4531875,3.2741375 3.1430625,0.5291375 7.1464375,0.5291375 C8.6093125,0.5291375 10.0725625,0.9536375 11.1626875,1.6941375 L11.2256875,1.7370125 L10.9666875,2.1012625 L10.9060625,2.0590125 C9.8486875,1.3250125 8.5135625,0.9205125 7.1464375,0.9205125 C3.4346875,0.9205125 0.9413125,3.5082625 0.9413125,7.3597625 C0.9413125,11.4261375 3.4346875,14.1583875 7.1464375,14.1583875 C8.6524375,14.1583875 10.1659375,13.6442625 11.1959375,12.7827625 L11.2501875,12.7372625 L11.5388125,13.0472625 L11.4781875,13.0977625 C10.3625625,14.0320125 8.8163125,14.5467625 7.1243125,14.5467625 M7.1464375,0.2248875 C5.1115625,0.2248875 3.3646875,0.9067625 2.0944375,2.1972625 C0.8218125,3.4907625 0.1493125,5.2758875 0.1493125,7.3597625 C0.1493125,11.8402625 2.9523125,14.8506375 7.1243125,14.8506375 C8.9918125,14.8506375 10.6726875,14.2536375 11.8584375,13.1693875 L11.9710625,13.0658875 L11.2681875,12.3101375 L11.1574375,12.4123875 C10.1764375,13.3155125 8.6769375,13.8543875 7.1464375,13.8543875 C3.5619375,13.8543875 1.2451875,11.3051375 1.2451875,7.3597625 C1.2451875,3.6900125 3.6166875,1.2242625 7.1464375,1.2242625 C8.5170625,1.2242625 9.8888125,1.6661375 10.9089375,2.4366375 L11.0338125,2.5305125 L11.6473125,1.6690125 L11.5271875,1.5803875 C10.3648125,0.7188875 8.7679375,0.2248875 7.1464375,0.2248875 M7.1243125,15.0000125 C2.8631875,15.0000125 6.25e-05,11.9295125 6.25e-05,7.3597625 C6.25e-05,5.2358875 0.6876875,3.4143875 1.9883125,2.0922625 C3.2865625,0.7728875 5.0706875,0.0756375 7.1464375,0.0756375 C8.7993125,0.0756375 10.4284375,0.5803875 11.6159375,1.4602625 L11.8538125,1.6363875 L11.0664375,2.7422625 L10.8191875,2.5556375 C9.8240625,1.8043875 8.4856875,1.3736375 7.1464375,1.3736375 C3.7059375,1.3736375 1.3945625,3.7792625 1.3945625,7.3597625 C1.3945625,11.2143875 3.6523125,13.7051375 7.1464375,13.7051375 C8.6406875,13.7051375 10.1018125,13.1807625 11.0559375,12.3027625 L11.2764375,12.0995125 L12.1834375,13.0746375 L11.9588125,13.2797625 C10.7461875,14.3890125 9.0291875,15.0000125 7.1243125,15.0000125" id="Fill-7" fill="#1D252D" mask="url(#mask-2)"></path>
                </g>
                <polygon id="Fill-10" fill="#1D252D" points="22.998525 0.8544 23.83915 0.8544 23.83915 13.577275 32.904025 13.577275 32.904025 14.331525 22.998525 14.331525"></polygon>
                <path d="M23.0730875,14.257025 L32.8295875,14.257025 L32.8295875,13.6519 L23.7643375,13.6519 L23.7643375,0.929025 L23.0730875,0.929025 L23.0730875,14.257025 Z M32.9789625,14.4064 L22.9237125,14.4064 L22.9237125,0.77965 L23.9135875,0.77965 L23.9135875,13.50265 L32.9789625,13.50265 L32.9789625,14.4064 Z" id="Fill-12" fill="#1D252D"></path>
                <path d="M23.2453125,14.084725 L32.6573125,14.084725 L32.6573125,13.8241 L23.5923125,13.8241 L23.5923125,1.101225 L23.2453125,1.101225 L23.2453125,14.084725 Z M33.1508125,14.578225 L22.7516875,14.578225 L22.7516875,0.6076 L24.0859375,0.6076 L24.0859375,13.3306 L33.1508125,13.3306 L33.1508125,14.578225 Z" id="Fill-14" fill="#1D252D"></path>
                <path d="M23.3197875,14.010025 L32.5829125,14.010025 L32.5829125,13.8989 L23.5175375,13.8989 L23.5175375,1.175775 L23.3197875,1.175775 L23.3197875,14.010025 Z M32.7321625,14.159275 L23.1704125,14.159275 L23.1704125,1.0264 L23.6667875,1.0264 L23.6667875,13.749525 L32.7321625,13.749525 L32.7321625,14.159275 Z M22.8264125,14.503775 L33.0762875,14.503775 L33.0762875,13.40515 L24.0115375,13.40515 L24.0115375,0.682275 L22.8264125,0.682275 L22.8264125,14.503775 Z M33.2256625,14.653025 L22.6770375,14.653025 L22.6770375,0.533025 L24.1609125,0.533025 L24.1609125,13.2559 L33.2256625,13.2559 L33.2256625,14.653025 Z" id="Fill-16" fill="#1D252D"></path>
                <path d="M70.59315,8.2678875 C73.544275,8.2678875 74.61865,6.5752625 74.61865,4.8962625 C74.61865,3.1521375 73.5879,1.5680125 70.636775,1.5680125 L65.46665,1.5680125 L65.46665,8.2678875 L70.59315,8.2678875 Z M64.628525,0.8330125 L70.636775,0.8330125 C74.211775,0.8330125 75.4594,2.7832625 75.4594,4.8962625 C75.4594,6.6811375 74.44765,8.3953875 71.90615,8.8701375 L74.773025,14.3257625 L73.8049,14.3257625 L71.068025,8.9783875 L70.636775,8.9783875 L65.46665,8.9783875 L65.46665,14.3257625 L64.628525,14.3257625 L64.628525,0.8330125 Z" id="Fill-18" fill="#1D252D"></path>
                <path d="M65.54135,8.1933375 L70.59285,8.1933375 C74.2591,8.1933375 74.543725,5.6695875 74.543725,4.8962125 C74.543725,2.8287125 73.119475,1.6425875 70.6366,1.6425875 L65.54135,1.6425875 L65.54135,8.1933375 Z M70.59285,8.3427125 L65.3921,8.3427125 L65.3921,1.4933375 L70.6366,1.4933375 C74.2976,1.4933375 74.6931,3.8729625 74.6931,4.8962125 C74.6931,7.4370875 72.57535,8.3427125 70.59285,8.3427125 L70.59285,8.3427125 Z M73.850225,14.2512125 L74.64935,14.2512125 L71.7931,8.8153375 L71.89235,8.7967125 C75.044725,8.2079625 75.384725,5.8729625 75.384725,4.8962125 C75.384725,2.3614625 73.654225,0.9077125 70.6366,0.9077125 L64.703225,0.9077125 L64.703225,14.2512125 L65.3921,14.2512125 L65.3921,8.9037125 L71.113725,8.9037125 L71.134725,8.9442125 L73.850225,14.2512125 Z M74.8966,14.4004625 L73.759225,14.4004625 L73.73835,14.3599625 L71.022725,9.0530875 L65.54135,9.0530875 L65.54135,14.4004625 L64.553975,14.4004625 L64.553975,0.7584625 L70.6366,0.7584625 C75.056975,0.7584625 75.5341,3.6522125 75.5341,4.8962125 C75.5341,6.9769625 74.22235,8.4762125 72.01885,8.9242125 L74.8966,14.4004625 Z" id="Fill-20" fill="#1D252D"></path>
                <path d="M65.7133625,8.0211 L70.5931125,8.0211 C73.3821125,8.0211 74.3717375,6.451475 74.3717375,4.896225 C74.3717375,4.115475 74.1026125,1.814725 70.6368625,1.814725 L65.7133625,1.814725 L65.7133625,8.0211 Z M70.5931125,8.514725 L65.2198625,8.514725 L65.2198625,1.321225 L70.6368625,1.321225 C73.7546125,1.321225 74.8653625,3.048725 74.8653625,4.896225 C74.8653625,5.894225 74.5206125,6.572725 73.8943625,7.2551 C73.1383625,8.0791 71.9967375,8.514725 70.5931125,8.514725 L70.5931125,8.514725 Z M73.9548625,14.078975 L74.3632375,14.078975 L71.5312375,8.6891 L71.8609875,8.627475 C74.3321125,8.165975 75.2126125,6.516725 75.2126125,4.896225 C75.2126125,3.9431 74.8827375,1.07985 70.6368625,1.07985 L64.8752375,1.07985 L64.8752375,14.078975 L65.2198625,14.078975 L65.2198625,8.7316 L71.2181125,8.7316 L73.9548625,14.078975 Z M75.1827375,14.572475 L73.6548625,14.572475 L70.9181125,9.2251 L65.7133625,9.2251 L65.7133625,14.572475 L64.3817375,14.572475 L64.3817375,0.586225 L70.6368625,0.586225 C72.3541125,0.586225 73.6772375,0.82435 74.5692375,1.7806 C75.3024875,2.5666 75.7062375,3.6731 75.7062375,4.896225 C75.7062375,6.561975 74.8002375,8.41835 72.2764875,9.042225 L75.1827375,14.572475 Z" id="Fill-22" fill="#1D252D"></path>
                <path d="M65.78805,7.9463375 L70.593425,7.9463375 C74.029925,7.9463375 74.29705,5.6119625 74.29705,4.8962125 C74.29705,3.9922125 73.94005,1.8893375 70.636675,1.8893375 L65.78805,1.8893375 L65.78805,7.9463375 Z M70.593425,8.0957125 L65.6388,8.0957125 L65.6388,1.7399625 L70.636675,1.7399625 C74.075425,1.7399625 74.4463,3.9473375 74.4463,4.8962125 C74.4463,5.6469625 74.168675,8.0957125 70.593425,8.0957125 L70.593425,8.0957125 Z M65.294675,8.4400875 L70.593425,8.4400875 C71.97505,8.4400875 73.0973,8.0128375 73.8398,7.2047125 C74.515175,6.4683375 74.790425,5.7994625 74.790425,4.8962125 C74.790425,3.8438375 74.385675,1.3959625 70.636675,1.3959625 L65.294675,1.3959625 L65.294675,8.4400875 Z M70.593425,8.5893375 L65.145425,8.5893375 L65.145425,1.2465875 L70.636675,1.2465875 C73.331175,1.2465875 74.9398,2.6110875 74.9398,4.8962125 C74.9398,5.8408375 74.6528,6.5385875 73.949425,7.3055875 C73.1783,8.1454625 72.017675,8.5893375 70.593425,8.5893375 L70.593425,8.5893375 Z M74.000175,14.0044625 L74.2393,14.0044625 L71.418175,8.6342125 L71.847425,8.5540875 C74.8173,7.9994625 75.13805,5.8113375 75.13805,4.8962125 C75.13805,3.7712125 74.699425,1.1544625 70.636675,1.1544625 L64.949925,1.1544625 L64.949925,14.0042125 L65.145425,14.0042125 L65.145425,8.6569625 L71.26355,8.6569625 L71.28455,8.6974625 L74.000175,14.0044625 Z M74.48655,14.1538375 L73.909175,14.1538375 L73.888175,14.1132125 L71.17255,8.8063375 L65.294675,8.8063375 L65.294675,14.1534625 L64.800675,14.1534625 L64.800675,1.0050875 L70.636675,1.0050875 C72.4808,1.0050875 73.80655,1.5370875 74.576925,2.5863375 C75.195175,3.4279625 75.2873,4.3945875 75.2873,4.8962125 C75.2873,5.8483375 74.954925,8.1253375 71.874175,8.7010875 L71.644425,8.7438375 L74.48655,14.1538375 Z M73.700425,14.4979625 L75.0593,14.4979625 L72.166425,8.9927125 L72.25855,8.9695875 C75.3883,8.1962125 75.631425,5.6562125 75.631425,4.8962125 C75.631425,3.6918375 75.2348,2.6034625 74.51455,1.8315875 C73.7388,1.0002125 72.61555,0.6610875 70.636675,0.6610875 L64.45655,0.6610875 L64.45655,14.4979625 L65.6388,14.4979625 L65.6388,9.1504625 L70.9638,9.1504625 L70.9848,9.1909625 L73.700425,14.4979625 Z M75.306675,14.6472125 L73.609425,14.6472125 L73.588425,14.6067125 L70.8728,9.2997125 L65.78805,9.2997125 L65.78805,14.6472125 L64.307175,14.6472125 L64.307175,0.5117125 L70.636675,0.5117125 C72.117425,0.5117125 73.62505,0.6592125 74.624175,1.7295875 C75.370175,2.5294625 75.7808,3.6539625 75.7808,4.8962125 C75.7808,5.6760875 75.53405,8.2647125 72.386925,9.0912125 L75.306675,14.6472125 Z" id="Fill-24" fill="#1D252D"></path>
                <mask id="mask-4" fill="white">
                    <use xlink:href="#path-3"></use>
                </mask>
                <g id="Clip-27"></g>
                <polygon id="Fill-26" fill="#1D252D" mask="url(#mask-4)" points="86.314625 14.311375 87.15275 14.311375 87.15275 0.838875 86.314625 0.838875"></polygon>
                <path d="M86.394854,14.236875 L87.109018,14.236875 L87.109018,0.913625 L86.394854,0.913625 L86.394854,14.236875 Z M86.240125,14.38625 L87.263747,14.38625 L87.263747,0.76425 L86.240125,0.76425 L86.240125,14.38625 Z" id="Fill-28" fill="#1D252D" mask="url(#mask-4)"></path>
                <path d="M86.56125,14.064625 L86.90575,14.064625 L86.90575,1.085625 L86.56125,1.085625 L86.56125,14.064625 Z M86.06775,14.558125 L87.399375,14.558125 L87.399375,0.592125 L86.06775,0.592125 L86.06775,14.558125 Z" id="Fill-29" fill="#1D252D" mask="url(#mask-4)"></path>
                <path d="M86.636125,13.989875 L86.830875,13.989875 L86.830875,1.16025 L86.636125,1.16025 L86.636125,13.989875 Z M86.486875,14.13925 L86.98025,14.13925 L86.98025,1.011 L86.486875,1.011 L86.486875,14.13925 Z M86.14275,14.483625 L87.325,14.483625 L87.325,0.666875 L86.14275,0.666875 L86.14275,14.483625 Z M85.993375,14.632875 L87.47425,14.632875 L87.47425,0.5175 L85.993375,0.5175 L85.993375,14.632875 Z" id="Fill-30" fill="#1D252D" mask="url(#mask-4)"></path>
                <polygon id="Fill-31" fill="#1D252D" mask="url(#mask-4)" points="102.938738 1.61715 97.1668625 1.61715 97.1668625 0.8389 109.573487 0.8389 109.573487 1.61715 103.779488 1.61715 103.779488 14.331525 102.938738 14.331525"></polygon>
                <path d="M103.013575,14.257025 L103.7047,14.257025 L103.7047,1.54265 L109.4987,1.54265 L109.4987,0.913525 L97.2412,0.913525 L97.2412,1.54265 L103.013575,1.54265 L103.013575,14.257025 Z M103.854075,14.4064 L102.8642,14.4064 L102.8642,1.6919 L97.09195,1.6919 L97.09195,0.764275 L109.648075,0.764275 L109.648075,1.6919 L103.854075,1.6919 L103.854075,14.4064 Z" id="Fill-32" fill="#1D252D" mask="url(#mask-4)"></path>
                <path d="M103.18545,14.084725 L103.5327,14.084725 L103.5327,1.37035 L109.3267,1.37035 L109.3267,1.085725 L97.4137,1.085725 L97.4137,1.37035 L103.18545,1.37035 L103.18545,14.084725 Z M104.026325,14.578225 L102.69195,14.578225 L102.69195,1.86385 L96.91995,1.86385 L96.91995,0.5921 L109.820325,0.5921 L109.820325,1.86385 L104.026325,1.86385 L104.026325,14.578225 Z" id="Fill-33" fill="#1D252D" mask="url(#mask-4)"></path>
                <path d="M103.260288,14.010025 L103.458038,14.010025 L103.458038,1.29565 L109.252038,1.29565 L109.252038,1.160275 L97.4885375,1.160275 L97.4885375,1.29565 L103.260288,1.29565 L103.260288,14.010025 Z M103.607288,14.159275 L103.110913,14.159275 L103.110913,1.4449 L97.3392875,1.4449 L97.3392875,1.011025 L109.401288,1.011025 L109.401288,1.4449 L103.607288,1.4449 L103.607288,14.159275 Z M102.766288,14.503775 L103.951538,14.503775 L103.951538,1.789275 L109.745413,1.789275 L109.745413,0.6669 L96.9945375,0.6669 L96.9945375,1.789275 L102.766288,1.789275 L102.766288,14.503775 Z M104.100788,14.653025 L102.617038,14.653025 L102.617038,1.93865 L96.8452875,1.93865 L96.8452875,0.517525 L109.894788,0.517525 L109.894788,1.93865 L104.100788,1.93865 L104.100788,14.653025 Z" id="Fill-34" fill="#1D252D" mask="url(#mask-4)"></path>
                <polygon id="Fill-35" fill="#1D252D" mask="url(#mask-4)" points="123.377038 8.905575 118.208288 0.85895 119.241663 0.85895 123.786538 8.129825 123.829913 8.129825 128.361912 0.85895 129.395287 0.85895 124.236788 8.905575 124.236788 14.311325 123.377038 14.311325"></polygon>
                <path d="M123.451588,14.2369 L124.161963,14.2369 L124.161963,8.8839 L124.173588,8.865525 L129.258963,0.933775 L128.403338,0.933775 L123.871463,8.2044 L123.744963,8.2044 L123.722838,8.1694 L119.200338,0.933775 L118.344713,0.933775 L123.451588,8.8839 L123.451588,14.2369 Z M124.311338,14.386275 L123.302213,14.386275 L123.302213,8.92765 L118.071713,0.7844 L119.283213,0.7844 L119.305338,0.8194 L123.807963,8.0239 L128.320463,0.7844 L129.531963,0.7844 L129.458463,0.899275 L124.311338,8.92765 L124.311338,14.386275 Z" id="Fill-36" fill="#1D252D" mask="url(#mask-4)"></path>
                <path d="M123.623813,14.0646 L123.989938,14.0646 L123.989938,8.8336 L128.945063,1.105725 L128.498938,1.105725 L123.966938,8.3766 L123.649438,8.3766 L119.104563,1.105725 L118.658563,1.105725 L123.623813,8.8336 L123.623813,14.0646 Z M124.483563,14.558225 L123.130313,14.558225 L123.130313,8.9776 L117.758062,0.612225 L119.378687,0.612225 L123.808313,7.697475 L128.224938,0.612225 L129.845688,0.612225 L124.483563,8.9776 L124.483563,14.558225 Z" id="Fill-37" fill="#1D252D" mask="url(#mask-4)"></path>
                <path d="M123.6983,13.9899 L123.9153,13.9899 L123.9153,8.811775 L123.926925,8.793525 L128.808675,1.1804 L128.540425,1.1804 L124.00855,8.45115 L123.607925,8.45115 L123.5858,8.41615 L119.0633,1.1804 L118.794925,1.1804 L123.6983,8.811775 L123.6983,13.9899 Z M124.06455,14.139275 L123.548925,14.139275 L123.548925,8.855525 L118.52205,1.03115 L119.14605,1.03115 L119.1683,1.06615 L123.6908,8.301775 L123.9258,8.301775 L128.45755,1.03115 L129.081675,1.03115 L129.008175,1.146025 L124.06455,8.855525 L124.06455,14.139275 Z M123.204925,14.48365 L124.408675,14.48365 L124.408675,8.9559 L124.4203,8.937525 L129.709175,0.68665 L128.2663,0.68665 L123.80855,7.8384 L123.744925,7.73715 L119.337425,0.68665 L117.894425,0.68665 L123.204925,8.9559 L123.204925,14.48365 Z M124.55805,14.6329 L123.05555,14.6329 L123.05555,8.99965 L117.62155,0.5374 L119.420175,0.5374 L119.442425,0.5724 L123.80855,7.55665 L128.183425,0.5374 L129.982175,0.5374 L129.908675,0.652275 L124.55805,8.99965 L124.55805,14.6329 Z" id="Fill-38" fill="#1D252D" mask="url(#mask-4)"></path>
                <polygon id="Fill-39" fill="#1D252D" mask="url(#mask-4)" points="50.2691125 10.3208875 51.9839875 7.0571375 48.5287375 0.4867625 41.0766125 14.6853875 44.5099875 14.6853875 48.5358625 7.0218875"></polygon>
                <polygon id="Fill-40" fill="#00A9E0" mask="url(#mask-4)" points="53.3196375 9.596975 51.6041375 12.8621 52.5622625 14.685475 55.9952625 14.685475"></polygon>
            </g>
        </g>
    </g>
</svg>